G04 #@! TF.GenerationSoftware,KiCad,Pcbnew,(5.1.5)-3*
G04 #@! TF.CreationDate,2020-08-23T08:48:16+04:00*
G04 #@! TF.ProjectId,SHT20-breakout-board,53485432-302d-4627-9265-616b6f75742d,rev?*
G04 #@! TF.SameCoordinates,Original*
G04 #@! TF.FileFunction,Soldermask,Top*
G04 #@! TF.FilePolarity,Negative*
%FSLAX46Y46*%
G04 Gerber Fmt 4.6, Leading zero omitted, Abs format (unit mm)*
G04 Created by KiCad (PCBNEW (5.1.5)-3) date 2020-08-23 08:48:16*
%MOMM*%
%LPD*%
G04 APERTURE LIST*
%ADD10C,0.010000*%
%ADD11C,0.100000*%
%ADD12O,1.800000X1.800000*%
%ADD13R,1.800000X1.800000*%
%ADD14R,0.700000X0.500000*%
G04 APERTURE END LIST*
D10*
G04 #@! TO.C,U1*
G36*
X199238500Y-66410000D02*
G01*
X199238500Y-68510000D01*
X199238637Y-68515234D01*
X199239048Y-68520453D01*
X199239731Y-68525643D01*
X199240685Y-68530791D01*
X199241907Y-68535882D01*
X199243394Y-68540902D01*
X199245142Y-68545837D01*
X199247145Y-68550674D01*
X199249399Y-68555399D01*
X199251897Y-68560000D01*
X199254633Y-68564464D01*
X199257598Y-68568779D01*
X199260785Y-68572932D01*
X199264186Y-68576913D01*
X199267789Y-68580711D01*
X199271587Y-68584314D01*
X199275568Y-68587715D01*
X199279721Y-68590902D01*
X199284036Y-68593867D01*
X199288500Y-68596603D01*
X199293101Y-68599101D01*
X199297826Y-68601355D01*
X199302663Y-68603358D01*
X199307598Y-68605106D01*
X199312618Y-68606593D01*
X199317709Y-68607815D01*
X199322857Y-68608769D01*
X199328047Y-68609452D01*
X199333266Y-68609863D01*
X199338500Y-68610000D01*
X200838500Y-68610000D01*
X200843734Y-68609863D01*
X200848953Y-68609452D01*
X200854143Y-68608769D01*
X200859291Y-68607815D01*
X200864382Y-68606593D01*
X200869402Y-68605106D01*
X200874337Y-68603358D01*
X200879174Y-68601355D01*
X200883899Y-68599101D01*
X200888500Y-68596603D01*
X200892964Y-68593867D01*
X200897279Y-68590902D01*
X200901432Y-68587715D01*
X200905413Y-68584314D01*
X200909211Y-68580711D01*
X200912814Y-68576913D01*
X200916215Y-68572932D01*
X200919402Y-68568779D01*
X200922367Y-68564464D01*
X200925103Y-68560000D01*
X200927601Y-68555399D01*
X200929855Y-68550674D01*
X200931858Y-68545837D01*
X200933606Y-68540902D01*
X200935093Y-68535882D01*
X200936315Y-68530791D01*
X200937269Y-68525643D01*
X200937952Y-68520453D01*
X200938363Y-68515234D01*
X200938500Y-68510000D01*
X200938500Y-66110000D01*
X200938363Y-66104766D01*
X200937952Y-66099547D01*
X200937269Y-66094357D01*
X200936315Y-66089209D01*
X200935093Y-66084118D01*
X200933606Y-66079098D01*
X200931858Y-66074163D01*
X200929855Y-66069326D01*
X200927601Y-66064601D01*
X200925103Y-66060000D01*
X200922367Y-66055536D01*
X200919402Y-66051221D01*
X200916215Y-66047068D01*
X200912814Y-66043087D01*
X200909211Y-66039289D01*
X200905413Y-66035686D01*
X200901432Y-66032285D01*
X200897279Y-66029098D01*
X200892964Y-66026133D01*
X200888500Y-66023397D01*
X200883899Y-66020899D01*
X200879174Y-66018645D01*
X200874337Y-66016642D01*
X200869402Y-66014894D01*
X200864382Y-66013407D01*
X200859291Y-66012185D01*
X200854143Y-66011231D01*
X200848953Y-66010548D01*
X200843734Y-66010137D01*
X200838500Y-66010000D01*
X199567791Y-66010000D01*
X199238500Y-66339291D01*
X199238500Y-66410000D01*
G37*
X199238500Y-66410000D02*
X199238500Y-68510000D01*
X199238637Y-68515234D01*
X199239048Y-68520453D01*
X199239731Y-68525643D01*
X199240685Y-68530791D01*
X199241907Y-68535882D01*
X199243394Y-68540902D01*
X199245142Y-68545837D01*
X199247145Y-68550674D01*
X199249399Y-68555399D01*
X199251897Y-68560000D01*
X199254633Y-68564464D01*
X199257598Y-68568779D01*
X199260785Y-68572932D01*
X199264186Y-68576913D01*
X199267789Y-68580711D01*
X199271587Y-68584314D01*
X199275568Y-68587715D01*
X199279721Y-68590902D01*
X199284036Y-68593867D01*
X199288500Y-68596603D01*
X199293101Y-68599101D01*
X199297826Y-68601355D01*
X199302663Y-68603358D01*
X199307598Y-68605106D01*
X199312618Y-68606593D01*
X199317709Y-68607815D01*
X199322857Y-68608769D01*
X199328047Y-68609452D01*
X199333266Y-68609863D01*
X199338500Y-68610000D01*
X200838500Y-68610000D01*
X200843734Y-68609863D01*
X200848953Y-68609452D01*
X200854143Y-68608769D01*
X200859291Y-68607815D01*
X200864382Y-68606593D01*
X200869402Y-68605106D01*
X200874337Y-68603358D01*
X200879174Y-68601355D01*
X200883899Y-68599101D01*
X200888500Y-68596603D01*
X200892964Y-68593867D01*
X200897279Y-68590902D01*
X200901432Y-68587715D01*
X200905413Y-68584314D01*
X200909211Y-68580711D01*
X200912814Y-68576913D01*
X200916215Y-68572932D01*
X200919402Y-68568779D01*
X200922367Y-68564464D01*
X200925103Y-68560000D01*
X200927601Y-68555399D01*
X200929855Y-68550674D01*
X200931858Y-68545837D01*
X200933606Y-68540902D01*
X200935093Y-68535882D01*
X200936315Y-68530791D01*
X200937269Y-68525643D01*
X200937952Y-68520453D01*
X200938363Y-68515234D01*
X200938500Y-68510000D01*
X200938500Y-66110000D01*
X200938363Y-66104766D01*
X200937952Y-66099547D01*
X200937269Y-66094357D01*
X200936315Y-66089209D01*
X200935093Y-66084118D01*
X200933606Y-66079098D01*
X200931858Y-66074163D01*
X200929855Y-66069326D01*
X200927601Y-66064601D01*
X200925103Y-66060000D01*
X200922367Y-66055536D01*
X200919402Y-66051221D01*
X200916215Y-66047068D01*
X200912814Y-66043087D01*
X200909211Y-66039289D01*
X200905413Y-66035686D01*
X200901432Y-66032285D01*
X200897279Y-66029098D01*
X200892964Y-66026133D01*
X200888500Y-66023397D01*
X200883899Y-66020899D01*
X200879174Y-66018645D01*
X200874337Y-66016642D01*
X200869402Y-66014894D01*
X200864382Y-66013407D01*
X200859291Y-66012185D01*
X200854143Y-66011231D01*
X200848953Y-66010548D01*
X200843734Y-66010137D01*
X200838500Y-66010000D01*
X199567791Y-66010000D01*
X199238500Y-66339291D01*
X199238500Y-66410000D01*
G04 #@! TD*
D11*
G04 #@! TO.C,R2*
G36*
X197103592Y-67995294D02*
G01*
X197129681Y-67999164D01*
X197155264Y-68005572D01*
X197180096Y-68014457D01*
X197203938Y-68025734D01*
X197226560Y-68039293D01*
X197247743Y-68055003D01*
X197267285Y-68072715D01*
X197284997Y-68092257D01*
X197300707Y-68113440D01*
X197314266Y-68136062D01*
X197325543Y-68159904D01*
X197334428Y-68184736D01*
X197340836Y-68210319D01*
X197344706Y-68236408D01*
X197346000Y-68262750D01*
X197346000Y-68800250D01*
X197344706Y-68826592D01*
X197340836Y-68852681D01*
X197334428Y-68878264D01*
X197325543Y-68903096D01*
X197314266Y-68926938D01*
X197300707Y-68949560D01*
X197284997Y-68970743D01*
X197267285Y-68990285D01*
X197247743Y-69007997D01*
X197226560Y-69023707D01*
X197203938Y-69037266D01*
X197180096Y-69048543D01*
X197155264Y-69057428D01*
X197129681Y-69063836D01*
X197103592Y-69067706D01*
X197077250Y-69069000D01*
X196114750Y-69069000D01*
X196088408Y-69067706D01*
X196062319Y-69063836D01*
X196036736Y-69057428D01*
X196011904Y-69048543D01*
X195988062Y-69037266D01*
X195965440Y-69023707D01*
X195944257Y-69007997D01*
X195924715Y-68990285D01*
X195907003Y-68970743D01*
X195891293Y-68949560D01*
X195877734Y-68926938D01*
X195866457Y-68903096D01*
X195857572Y-68878264D01*
X195851164Y-68852681D01*
X195847294Y-68826592D01*
X195846000Y-68800250D01*
X195846000Y-68262750D01*
X195847294Y-68236408D01*
X195851164Y-68210319D01*
X195857572Y-68184736D01*
X195866457Y-68159904D01*
X195877734Y-68136062D01*
X195891293Y-68113440D01*
X195907003Y-68092257D01*
X195924715Y-68072715D01*
X195944257Y-68055003D01*
X195965440Y-68039293D01*
X195988062Y-68025734D01*
X196011904Y-68014457D01*
X196036736Y-68005572D01*
X196062319Y-67999164D01*
X196088408Y-67995294D01*
X196114750Y-67994000D01*
X197077250Y-67994000D01*
X197103592Y-67995294D01*
G37*
G36*
X197103592Y-69870294D02*
G01*
X197129681Y-69874164D01*
X197155264Y-69880572D01*
X197180096Y-69889457D01*
X197203938Y-69900734D01*
X197226560Y-69914293D01*
X197247743Y-69930003D01*
X197267285Y-69947715D01*
X197284997Y-69967257D01*
X197300707Y-69988440D01*
X197314266Y-70011062D01*
X197325543Y-70034904D01*
X197334428Y-70059736D01*
X197340836Y-70085319D01*
X197344706Y-70111408D01*
X197346000Y-70137750D01*
X197346000Y-70675250D01*
X197344706Y-70701592D01*
X197340836Y-70727681D01*
X197334428Y-70753264D01*
X197325543Y-70778096D01*
X197314266Y-70801938D01*
X197300707Y-70824560D01*
X197284997Y-70845743D01*
X197267285Y-70865285D01*
X197247743Y-70882997D01*
X197226560Y-70898707D01*
X197203938Y-70912266D01*
X197180096Y-70923543D01*
X197155264Y-70932428D01*
X197129681Y-70938836D01*
X197103592Y-70942706D01*
X197077250Y-70944000D01*
X196114750Y-70944000D01*
X196088408Y-70942706D01*
X196062319Y-70938836D01*
X196036736Y-70932428D01*
X196011904Y-70923543D01*
X195988062Y-70912266D01*
X195965440Y-70898707D01*
X195944257Y-70882997D01*
X195924715Y-70865285D01*
X195907003Y-70845743D01*
X195891293Y-70824560D01*
X195877734Y-70801938D01*
X195866457Y-70778096D01*
X195857572Y-70753264D01*
X195851164Y-70727681D01*
X195847294Y-70701592D01*
X195846000Y-70675250D01*
X195846000Y-70137750D01*
X195847294Y-70111408D01*
X195851164Y-70085319D01*
X195857572Y-70059736D01*
X195866457Y-70034904D01*
X195877734Y-70011062D01*
X195891293Y-69988440D01*
X195907003Y-69967257D01*
X195924715Y-69947715D01*
X195944257Y-69930003D01*
X195965440Y-69914293D01*
X195988062Y-69900734D01*
X196011904Y-69889457D01*
X196036736Y-69880572D01*
X196062319Y-69874164D01*
X196088408Y-69870294D01*
X196114750Y-69869000D01*
X197077250Y-69869000D01*
X197103592Y-69870294D01*
G37*
G04 #@! TD*
G04 #@! TO.C,C1*
G36*
X201003592Y-69355294D02*
G01*
X201029681Y-69359164D01*
X201055264Y-69365572D01*
X201080096Y-69374457D01*
X201103938Y-69385734D01*
X201126560Y-69399293D01*
X201147743Y-69415003D01*
X201167285Y-69432715D01*
X201184997Y-69452257D01*
X201200707Y-69473440D01*
X201214266Y-69496062D01*
X201225543Y-69519904D01*
X201234428Y-69544736D01*
X201240836Y-69570319D01*
X201244706Y-69596408D01*
X201246000Y-69622750D01*
X201246000Y-70585250D01*
X201244706Y-70611592D01*
X201240836Y-70637681D01*
X201234428Y-70663264D01*
X201225543Y-70688096D01*
X201214266Y-70711938D01*
X201200707Y-70734560D01*
X201184997Y-70755743D01*
X201167285Y-70775285D01*
X201147743Y-70792997D01*
X201126560Y-70808707D01*
X201103938Y-70822266D01*
X201080096Y-70833543D01*
X201055264Y-70842428D01*
X201029681Y-70848836D01*
X201003592Y-70852706D01*
X200977250Y-70854000D01*
X200439750Y-70854000D01*
X200413408Y-70852706D01*
X200387319Y-70848836D01*
X200361736Y-70842428D01*
X200336904Y-70833543D01*
X200313062Y-70822266D01*
X200290440Y-70808707D01*
X200269257Y-70792997D01*
X200249715Y-70775285D01*
X200232003Y-70755743D01*
X200216293Y-70734560D01*
X200202734Y-70711938D01*
X200191457Y-70688096D01*
X200182572Y-70663264D01*
X200176164Y-70637681D01*
X200172294Y-70611592D01*
X200171000Y-70585250D01*
X200171000Y-69622750D01*
X200172294Y-69596408D01*
X200176164Y-69570319D01*
X200182572Y-69544736D01*
X200191457Y-69519904D01*
X200202734Y-69496062D01*
X200216293Y-69473440D01*
X200232003Y-69452257D01*
X200249715Y-69432715D01*
X200269257Y-69415003D01*
X200290440Y-69399293D01*
X200313062Y-69385734D01*
X200336904Y-69374457D01*
X200361736Y-69365572D01*
X200387319Y-69359164D01*
X200413408Y-69355294D01*
X200439750Y-69354000D01*
X200977250Y-69354000D01*
X201003592Y-69355294D01*
G37*
G36*
X199128592Y-69355294D02*
G01*
X199154681Y-69359164D01*
X199180264Y-69365572D01*
X199205096Y-69374457D01*
X199228938Y-69385734D01*
X199251560Y-69399293D01*
X199272743Y-69415003D01*
X199292285Y-69432715D01*
X199309997Y-69452257D01*
X199325707Y-69473440D01*
X199339266Y-69496062D01*
X199350543Y-69519904D01*
X199359428Y-69544736D01*
X199365836Y-69570319D01*
X199369706Y-69596408D01*
X199371000Y-69622750D01*
X199371000Y-70585250D01*
X199369706Y-70611592D01*
X199365836Y-70637681D01*
X199359428Y-70663264D01*
X199350543Y-70688096D01*
X199339266Y-70711938D01*
X199325707Y-70734560D01*
X199309997Y-70755743D01*
X199292285Y-70775285D01*
X199272743Y-70792997D01*
X199251560Y-70808707D01*
X199228938Y-70822266D01*
X199205096Y-70833543D01*
X199180264Y-70842428D01*
X199154681Y-70848836D01*
X199128592Y-70852706D01*
X199102250Y-70854000D01*
X198564750Y-70854000D01*
X198538408Y-70852706D01*
X198512319Y-70848836D01*
X198486736Y-70842428D01*
X198461904Y-70833543D01*
X198438062Y-70822266D01*
X198415440Y-70808707D01*
X198394257Y-70792997D01*
X198374715Y-70775285D01*
X198357003Y-70755743D01*
X198341293Y-70734560D01*
X198327734Y-70711938D01*
X198316457Y-70688096D01*
X198307572Y-70663264D01*
X198301164Y-70637681D01*
X198297294Y-70611592D01*
X198296000Y-70585250D01*
X198296000Y-69622750D01*
X198297294Y-69596408D01*
X198301164Y-69570319D01*
X198307572Y-69544736D01*
X198316457Y-69519904D01*
X198327734Y-69496062D01*
X198341293Y-69473440D01*
X198357003Y-69452257D01*
X198374715Y-69432715D01*
X198394257Y-69415003D01*
X198415440Y-69399293D01*
X198438062Y-69385734D01*
X198461904Y-69374457D01*
X198486736Y-69365572D01*
X198512319Y-69359164D01*
X198538408Y-69355294D01*
X198564750Y-69354000D01*
X199102250Y-69354000D01*
X199128592Y-69355294D01*
G37*
G04 #@! TD*
G04 #@! TO.C,R1*
G36*
X203961592Y-69870294D02*
G01*
X203987681Y-69874164D01*
X204013264Y-69880572D01*
X204038096Y-69889457D01*
X204061938Y-69900734D01*
X204084560Y-69914293D01*
X204105743Y-69930003D01*
X204125285Y-69947715D01*
X204142997Y-69967257D01*
X204158707Y-69988440D01*
X204172266Y-70011062D01*
X204183543Y-70034904D01*
X204192428Y-70059736D01*
X204198836Y-70085319D01*
X204202706Y-70111408D01*
X204204000Y-70137750D01*
X204204000Y-70675250D01*
X204202706Y-70701592D01*
X204198836Y-70727681D01*
X204192428Y-70753264D01*
X204183543Y-70778096D01*
X204172266Y-70801938D01*
X204158707Y-70824560D01*
X204142997Y-70845743D01*
X204125285Y-70865285D01*
X204105743Y-70882997D01*
X204084560Y-70898707D01*
X204061938Y-70912266D01*
X204038096Y-70923543D01*
X204013264Y-70932428D01*
X203987681Y-70938836D01*
X203961592Y-70942706D01*
X203935250Y-70944000D01*
X202972750Y-70944000D01*
X202946408Y-70942706D01*
X202920319Y-70938836D01*
X202894736Y-70932428D01*
X202869904Y-70923543D01*
X202846062Y-70912266D01*
X202823440Y-70898707D01*
X202802257Y-70882997D01*
X202782715Y-70865285D01*
X202765003Y-70845743D01*
X202749293Y-70824560D01*
X202735734Y-70801938D01*
X202724457Y-70778096D01*
X202715572Y-70753264D01*
X202709164Y-70727681D01*
X202705294Y-70701592D01*
X202704000Y-70675250D01*
X202704000Y-70137750D01*
X202705294Y-70111408D01*
X202709164Y-70085319D01*
X202715572Y-70059736D01*
X202724457Y-70034904D01*
X202735734Y-70011062D01*
X202749293Y-69988440D01*
X202765003Y-69967257D01*
X202782715Y-69947715D01*
X202802257Y-69930003D01*
X202823440Y-69914293D01*
X202846062Y-69900734D01*
X202869904Y-69889457D01*
X202894736Y-69880572D01*
X202920319Y-69874164D01*
X202946408Y-69870294D01*
X202972750Y-69869000D01*
X203935250Y-69869000D01*
X203961592Y-69870294D01*
G37*
G36*
X203961592Y-67995294D02*
G01*
X203987681Y-67999164D01*
X204013264Y-68005572D01*
X204038096Y-68014457D01*
X204061938Y-68025734D01*
X204084560Y-68039293D01*
X204105743Y-68055003D01*
X204125285Y-68072715D01*
X204142997Y-68092257D01*
X204158707Y-68113440D01*
X204172266Y-68136062D01*
X204183543Y-68159904D01*
X204192428Y-68184736D01*
X204198836Y-68210319D01*
X204202706Y-68236408D01*
X204204000Y-68262750D01*
X204204000Y-68800250D01*
X204202706Y-68826592D01*
X204198836Y-68852681D01*
X204192428Y-68878264D01*
X204183543Y-68903096D01*
X204172266Y-68926938D01*
X204158707Y-68949560D01*
X204142997Y-68970743D01*
X204125285Y-68990285D01*
X204105743Y-69007997D01*
X204084560Y-69023707D01*
X204061938Y-69037266D01*
X204038096Y-69048543D01*
X204013264Y-69057428D01*
X203987681Y-69063836D01*
X203961592Y-69067706D01*
X203935250Y-69069000D01*
X202972750Y-69069000D01*
X202946408Y-69067706D01*
X202920319Y-69063836D01*
X202894736Y-69057428D01*
X202869904Y-69048543D01*
X202846062Y-69037266D01*
X202823440Y-69023707D01*
X202802257Y-69007997D01*
X202782715Y-68990285D01*
X202765003Y-68970743D01*
X202749293Y-68949560D01*
X202735734Y-68926938D01*
X202724457Y-68903096D01*
X202715572Y-68878264D01*
X202709164Y-68852681D01*
X202705294Y-68826592D01*
X202704000Y-68800250D01*
X202704000Y-68262750D01*
X202705294Y-68236408D01*
X202709164Y-68210319D01*
X202715572Y-68184736D01*
X202724457Y-68159904D01*
X202735734Y-68136062D01*
X202749293Y-68113440D01*
X202765003Y-68092257D01*
X202782715Y-68072715D01*
X202802257Y-68055003D01*
X202823440Y-68039293D01*
X202846062Y-68025734D01*
X202869904Y-68014457D01*
X202894736Y-68005572D01*
X202920319Y-67999164D01*
X202946408Y-67995294D01*
X202972750Y-67994000D01*
X203935250Y-67994000D01*
X203961592Y-67995294D01*
G37*
G04 #@! TD*
D12*
G04 #@! TO.C,J1*
X203835000Y-73533000D03*
X201295000Y-73533000D03*
X198755000Y-73533000D03*
D13*
X196215000Y-73533000D03*
G04 #@! TD*
D14*
G04 #@! TO.C,U1*
X201488500Y-66310000D03*
X201488500Y-67310000D03*
X201488500Y-68310000D03*
X198688500Y-66310000D03*
X198688500Y-67310000D03*
X198688500Y-68310000D03*
G04 #@! TD*
M02*
