G04 #@! TF.GenerationSoftware,KiCad,Pcbnew,(5.1.5)-3*
G04 #@! TF.CreationDate,2020-08-23T08:48:16+04:00*
G04 #@! TF.ProjectId,SHT20-breakout-board,53485432-302d-4627-9265-616b6f75742d,rev?*
G04 #@! TF.SameCoordinates,Original*
G04 #@! TF.FileFunction,Legend,Bot*
G04 #@! TF.FilePolarity,Positive*
%FSLAX46Y46*%
G04 Gerber Fmt 4.6, Leading zero omitted, Abs format (unit mm)*
G04 Created by KiCad (PCBNEW (5.1.5)-3) date 2020-08-23 08:48:16*
%MOMM*%
%LPD*%
G04 APERTURE LIST*
%ADD10C,0.010000*%
G04 APERTURE END LIST*
D10*
G04 #@! TO.C,REF\002A\002A*
G36*
X199341964Y-67339427D02*
G01*
X199229382Y-67936618D01*
X198813969Y-68107865D01*
X198398555Y-68279112D01*
X197900198Y-67940233D01*
X197760631Y-67845877D01*
X197634471Y-67761630D01*
X197527604Y-67691338D01*
X197445917Y-67638847D01*
X197395298Y-67608004D01*
X197381513Y-67601353D01*
X197356679Y-67618458D01*
X197303611Y-67665744D01*
X197228259Y-67737172D01*
X197136570Y-67826700D01*
X197034492Y-67928289D01*
X196927973Y-68035898D01*
X196822963Y-68143487D01*
X196725408Y-68245015D01*
X196641257Y-68334441D01*
X196576459Y-68405726D01*
X196536962Y-68452828D01*
X196527519Y-68468592D01*
X196541108Y-68497653D01*
X196579206Y-68561321D01*
X196637806Y-68653367D01*
X196712902Y-68767564D01*
X196800491Y-68897684D01*
X196851245Y-68971901D01*
X196943754Y-69107422D01*
X197025959Y-69229716D01*
X197093869Y-69332695D01*
X197143499Y-69410273D01*
X197170859Y-69456361D01*
X197174970Y-69466047D01*
X197165650Y-69493574D01*
X197140245Y-69557728D01*
X197102588Y-69649490D01*
X197056513Y-69759839D01*
X197005853Y-69879755D01*
X196954440Y-70000219D01*
X196906110Y-70112209D01*
X196864693Y-70206707D01*
X196834025Y-70274692D01*
X196817938Y-70307143D01*
X196816988Y-70308420D01*
X196791727Y-70314617D01*
X196724454Y-70328440D01*
X196622139Y-70348532D01*
X196491758Y-70373534D01*
X196340283Y-70402086D01*
X196251906Y-70418551D01*
X196090047Y-70449369D01*
X195943850Y-70478694D01*
X195820712Y-70504921D01*
X195728030Y-70526446D01*
X195673198Y-70541665D01*
X195662176Y-70546493D01*
X195651381Y-70579174D01*
X195642670Y-70652985D01*
X195636039Y-70759292D01*
X195631481Y-70889467D01*
X195628990Y-71034876D01*
X195628561Y-71186890D01*
X195630188Y-71336877D01*
X195633864Y-71476206D01*
X195639584Y-71596245D01*
X195647342Y-71688365D01*
X195657131Y-71743932D01*
X195663003Y-71755500D01*
X195698100Y-71769365D01*
X195772471Y-71789188D01*
X195876276Y-71812639D01*
X195999680Y-71837391D01*
X196042758Y-71845398D01*
X196250452Y-71883441D01*
X196414515Y-71914079D01*
X196540369Y-71938529D01*
X196633434Y-71958009D01*
X196699132Y-71973736D01*
X196742882Y-71986928D01*
X196770107Y-71998804D01*
X196786227Y-72010580D01*
X196788482Y-72012908D01*
X196810996Y-72050400D01*
X196845341Y-72123365D01*
X196888088Y-72222867D01*
X196935807Y-72339973D01*
X196985069Y-72465748D01*
X197032444Y-72591257D01*
X197074504Y-72707565D01*
X197107819Y-72805739D01*
X197128958Y-72876843D01*
X197134494Y-72911942D01*
X197134033Y-72913172D01*
X197115276Y-72941861D01*
X197072723Y-73004985D01*
X197010846Y-73095973D01*
X196934117Y-73208255D01*
X196847008Y-73335260D01*
X196822201Y-73371353D01*
X196733747Y-73502203D01*
X196655911Y-73621591D01*
X196592933Y-73722662D01*
X196549054Y-73798559D01*
X196528514Y-73842427D01*
X196527519Y-73847817D01*
X196544777Y-73876144D01*
X196592464Y-73932261D01*
X196664449Y-74010137D01*
X196754602Y-74103740D01*
X196856794Y-74207041D01*
X196964894Y-74314006D01*
X197072771Y-74418606D01*
X197174295Y-74514809D01*
X197263337Y-74596584D01*
X197333766Y-74657900D01*
X197379452Y-74692726D01*
X197392090Y-74698412D01*
X197421508Y-74685020D01*
X197481738Y-74648899D01*
X197562970Y-74596136D01*
X197625469Y-74553667D01*
X197738714Y-74475740D01*
X197872825Y-74383984D01*
X198007344Y-74292375D01*
X198079666Y-74243346D01*
X198324461Y-74077770D01*
X198529949Y-74188875D01*
X198623563Y-74237548D01*
X198703169Y-74275381D01*
X198757032Y-74296958D01*
X198770742Y-74299961D01*
X198787229Y-74277793D01*
X198819754Y-74215149D01*
X198865891Y-74117809D01*
X198923209Y-73991549D01*
X198989283Y-73842150D01*
X199061684Y-73675388D01*
X199137983Y-73497042D01*
X199215753Y-73312891D01*
X199292565Y-73128712D01*
X199365993Y-72950285D01*
X199433607Y-72783387D01*
X199492979Y-72633797D01*
X199541683Y-72507293D01*
X199577289Y-72409654D01*
X199597369Y-72346657D01*
X199600599Y-72325021D01*
X199575003Y-72297424D01*
X199518961Y-72252625D01*
X199444188Y-72199934D01*
X199437912Y-72195765D01*
X199244654Y-72041069D01*
X199088825Y-71860591D01*
X198971775Y-71660102D01*
X198894854Y-71445374D01*
X198859413Y-71222177D01*
X198866802Y-70996281D01*
X198918372Y-70773459D01*
X199015473Y-70559479D01*
X199044041Y-70512664D01*
X199192631Y-70323618D01*
X199368172Y-70171812D01*
X199564589Y-70058034D01*
X199775806Y-69983075D01*
X199995746Y-69947722D01*
X200218336Y-69952767D01*
X200437498Y-69998999D01*
X200647157Y-70087206D01*
X200841238Y-70218179D01*
X200901273Y-70271337D01*
X201054064Y-70437739D01*
X201165402Y-70612912D01*
X201241776Y-70809266D01*
X201284312Y-71003717D01*
X201294813Y-71222342D01*
X201259799Y-71442052D01*
X201182826Y-71655420D01*
X201067452Y-71855022D01*
X200917234Y-72033429D01*
X200735726Y-72183217D01*
X200711872Y-72199006D01*
X200636298Y-72250712D01*
X200578848Y-72295512D01*
X200551382Y-72324117D01*
X200550982Y-72325021D01*
X200556879Y-72355964D01*
X200580254Y-72426191D01*
X200618678Y-72529925D01*
X200669722Y-72661390D01*
X200730957Y-72814807D01*
X200799955Y-72984401D01*
X200874286Y-73164393D01*
X200951521Y-73349008D01*
X201029231Y-73532468D01*
X201104988Y-73708996D01*
X201176362Y-73872814D01*
X201240925Y-74018147D01*
X201296247Y-74139217D01*
X201339899Y-74230247D01*
X201369453Y-74285460D01*
X201381355Y-74299961D01*
X201417722Y-74288669D01*
X201485769Y-74258385D01*
X201573763Y-74214520D01*
X201622149Y-74188875D01*
X201827636Y-74077770D01*
X202072431Y-74243346D01*
X202197393Y-74328170D01*
X202334204Y-74421516D01*
X202462411Y-74509408D01*
X202526628Y-74553667D01*
X202616948Y-74614318D01*
X202693428Y-74662381D01*
X202746092Y-74691770D01*
X202763197Y-74697982D01*
X202788094Y-74681223D01*
X202843194Y-74634436D01*
X202923156Y-74562480D01*
X203022639Y-74470212D01*
X203136299Y-74362490D01*
X203208184Y-74293326D01*
X203333948Y-74169757D01*
X203442636Y-74059234D01*
X203529854Y-73966485D01*
X203591210Y-73896237D01*
X203622308Y-73853220D01*
X203625291Y-73844490D01*
X203611446Y-73811284D01*
X203573187Y-73744142D01*
X203514758Y-73649863D01*
X203440402Y-73535245D01*
X203354364Y-73407083D01*
X203329897Y-73371353D01*
X203240745Y-73241489D01*
X203160761Y-73124569D01*
X203094419Y-73027162D01*
X203046188Y-72955839D01*
X203020542Y-72917170D01*
X203018064Y-72913172D01*
X203021770Y-72882355D01*
X203041438Y-72814599D01*
X203073639Y-72718839D01*
X203114944Y-72604009D01*
X203161924Y-72479044D01*
X203211150Y-72352879D01*
X203259191Y-72234448D01*
X203302618Y-72132685D01*
X203338003Y-72056526D01*
X203361915Y-72014904D01*
X203363615Y-72012908D01*
X203378237Y-72001013D01*
X203402934Y-71989250D01*
X203443127Y-71976401D01*
X203504236Y-71961249D01*
X203591682Y-71942576D01*
X203710887Y-71919165D01*
X203867272Y-71889797D01*
X204066256Y-71853255D01*
X204109339Y-71845398D01*
X204237029Y-71820727D01*
X204348346Y-71796593D01*
X204433454Y-71775324D01*
X204482516Y-71759248D01*
X204489094Y-71755500D01*
X204499935Y-71722273D01*
X204508746Y-71648021D01*
X204515523Y-71541376D01*
X204520259Y-71410967D01*
X204522949Y-71265427D01*
X204523586Y-71113386D01*
X204522165Y-70963476D01*
X204518679Y-70824328D01*
X204513123Y-70704572D01*
X204505491Y-70612841D01*
X204495777Y-70557766D01*
X204489921Y-70546493D01*
X204457319Y-70535123D01*
X204383081Y-70516624D01*
X204274603Y-70492602D01*
X204139282Y-70464662D01*
X203984514Y-70434408D01*
X203900192Y-70418551D01*
X203740203Y-70388644D01*
X203597532Y-70361550D01*
X203479151Y-70338631D01*
X203392034Y-70321243D01*
X203343154Y-70310747D01*
X203335109Y-70308420D01*
X203321512Y-70282186D01*
X203292770Y-70218995D01*
X203252714Y-70127877D01*
X203205175Y-70017857D01*
X203153984Y-69897965D01*
X203102973Y-69777227D01*
X203055973Y-69664671D01*
X203016815Y-69569326D01*
X202989330Y-69500217D01*
X202977350Y-69466374D01*
X202977127Y-69464895D01*
X202990708Y-69438197D01*
X203028784Y-69376760D01*
X203087352Y-69286689D01*
X203162411Y-69174090D01*
X203249959Y-69045070D01*
X203300852Y-68970961D01*
X203393590Y-68835077D01*
X203475958Y-68711709D01*
X203543938Y-68607097D01*
X203593511Y-68527483D01*
X203620657Y-68479107D01*
X203624578Y-68468262D01*
X203607724Y-68443020D01*
X203561131Y-68389124D01*
X203490751Y-68312613D01*
X203402534Y-68219523D01*
X203302434Y-68115895D01*
X203196401Y-68007764D01*
X203090388Y-67901170D01*
X202990347Y-67802150D01*
X202902229Y-67716742D01*
X202831986Y-67650985D01*
X202785571Y-67610916D01*
X202770043Y-67601353D01*
X202744760Y-67614800D01*
X202684288Y-67652575D01*
X202594507Y-67710835D01*
X202481296Y-67785734D01*
X202350536Y-67873425D01*
X202251900Y-67940233D01*
X201753542Y-68279112D01*
X201338129Y-68107865D01*
X200922715Y-67936618D01*
X200810133Y-67339427D01*
X200697550Y-66742235D01*
X199454547Y-66742235D01*
X199341964Y-67339427D01*
G37*
X199341964Y-67339427D02*
X199229382Y-67936618D01*
X198813969Y-68107865D01*
X198398555Y-68279112D01*
X197900198Y-67940233D01*
X197760631Y-67845877D01*
X197634471Y-67761630D01*
X197527604Y-67691338D01*
X197445917Y-67638847D01*
X197395298Y-67608004D01*
X197381513Y-67601353D01*
X197356679Y-67618458D01*
X197303611Y-67665744D01*
X197228259Y-67737172D01*
X197136570Y-67826700D01*
X197034492Y-67928289D01*
X196927973Y-68035898D01*
X196822963Y-68143487D01*
X196725408Y-68245015D01*
X196641257Y-68334441D01*
X196576459Y-68405726D01*
X196536962Y-68452828D01*
X196527519Y-68468592D01*
X196541108Y-68497653D01*
X196579206Y-68561321D01*
X196637806Y-68653367D01*
X196712902Y-68767564D01*
X196800491Y-68897684D01*
X196851245Y-68971901D01*
X196943754Y-69107422D01*
X197025959Y-69229716D01*
X197093869Y-69332695D01*
X197143499Y-69410273D01*
X197170859Y-69456361D01*
X197174970Y-69466047D01*
X197165650Y-69493574D01*
X197140245Y-69557728D01*
X197102588Y-69649490D01*
X197056513Y-69759839D01*
X197005853Y-69879755D01*
X196954440Y-70000219D01*
X196906110Y-70112209D01*
X196864693Y-70206707D01*
X196834025Y-70274692D01*
X196817938Y-70307143D01*
X196816988Y-70308420D01*
X196791727Y-70314617D01*
X196724454Y-70328440D01*
X196622139Y-70348532D01*
X196491758Y-70373534D01*
X196340283Y-70402086D01*
X196251906Y-70418551D01*
X196090047Y-70449369D01*
X195943850Y-70478694D01*
X195820712Y-70504921D01*
X195728030Y-70526446D01*
X195673198Y-70541665D01*
X195662176Y-70546493D01*
X195651381Y-70579174D01*
X195642670Y-70652985D01*
X195636039Y-70759292D01*
X195631481Y-70889467D01*
X195628990Y-71034876D01*
X195628561Y-71186890D01*
X195630188Y-71336877D01*
X195633864Y-71476206D01*
X195639584Y-71596245D01*
X195647342Y-71688365D01*
X195657131Y-71743932D01*
X195663003Y-71755500D01*
X195698100Y-71769365D01*
X195772471Y-71789188D01*
X195876276Y-71812639D01*
X195999680Y-71837391D01*
X196042758Y-71845398D01*
X196250452Y-71883441D01*
X196414515Y-71914079D01*
X196540369Y-71938529D01*
X196633434Y-71958009D01*
X196699132Y-71973736D01*
X196742882Y-71986928D01*
X196770107Y-71998804D01*
X196786227Y-72010580D01*
X196788482Y-72012908D01*
X196810996Y-72050400D01*
X196845341Y-72123365D01*
X196888088Y-72222867D01*
X196935807Y-72339973D01*
X196985069Y-72465748D01*
X197032444Y-72591257D01*
X197074504Y-72707565D01*
X197107819Y-72805739D01*
X197128958Y-72876843D01*
X197134494Y-72911942D01*
X197134033Y-72913172D01*
X197115276Y-72941861D01*
X197072723Y-73004985D01*
X197010846Y-73095973D01*
X196934117Y-73208255D01*
X196847008Y-73335260D01*
X196822201Y-73371353D01*
X196733747Y-73502203D01*
X196655911Y-73621591D01*
X196592933Y-73722662D01*
X196549054Y-73798559D01*
X196528514Y-73842427D01*
X196527519Y-73847817D01*
X196544777Y-73876144D01*
X196592464Y-73932261D01*
X196664449Y-74010137D01*
X196754602Y-74103740D01*
X196856794Y-74207041D01*
X196964894Y-74314006D01*
X197072771Y-74418606D01*
X197174295Y-74514809D01*
X197263337Y-74596584D01*
X197333766Y-74657900D01*
X197379452Y-74692726D01*
X197392090Y-74698412D01*
X197421508Y-74685020D01*
X197481738Y-74648899D01*
X197562970Y-74596136D01*
X197625469Y-74553667D01*
X197738714Y-74475740D01*
X197872825Y-74383984D01*
X198007344Y-74292375D01*
X198079666Y-74243346D01*
X198324461Y-74077770D01*
X198529949Y-74188875D01*
X198623563Y-74237548D01*
X198703169Y-74275381D01*
X198757032Y-74296958D01*
X198770742Y-74299961D01*
X198787229Y-74277793D01*
X198819754Y-74215149D01*
X198865891Y-74117809D01*
X198923209Y-73991549D01*
X198989283Y-73842150D01*
X199061684Y-73675388D01*
X199137983Y-73497042D01*
X199215753Y-73312891D01*
X199292565Y-73128712D01*
X199365993Y-72950285D01*
X199433607Y-72783387D01*
X199492979Y-72633797D01*
X199541683Y-72507293D01*
X199577289Y-72409654D01*
X199597369Y-72346657D01*
X199600599Y-72325021D01*
X199575003Y-72297424D01*
X199518961Y-72252625D01*
X199444188Y-72199934D01*
X199437912Y-72195765D01*
X199244654Y-72041069D01*
X199088825Y-71860591D01*
X198971775Y-71660102D01*
X198894854Y-71445374D01*
X198859413Y-71222177D01*
X198866802Y-70996281D01*
X198918372Y-70773459D01*
X199015473Y-70559479D01*
X199044041Y-70512664D01*
X199192631Y-70323618D01*
X199368172Y-70171812D01*
X199564589Y-70058034D01*
X199775806Y-69983075D01*
X199995746Y-69947722D01*
X200218336Y-69952767D01*
X200437498Y-69998999D01*
X200647157Y-70087206D01*
X200841238Y-70218179D01*
X200901273Y-70271337D01*
X201054064Y-70437739D01*
X201165402Y-70612912D01*
X201241776Y-70809266D01*
X201284312Y-71003717D01*
X201294813Y-71222342D01*
X201259799Y-71442052D01*
X201182826Y-71655420D01*
X201067452Y-71855022D01*
X200917234Y-72033429D01*
X200735726Y-72183217D01*
X200711872Y-72199006D01*
X200636298Y-72250712D01*
X200578848Y-72295512D01*
X200551382Y-72324117D01*
X200550982Y-72325021D01*
X200556879Y-72355964D01*
X200580254Y-72426191D01*
X200618678Y-72529925D01*
X200669722Y-72661390D01*
X200730957Y-72814807D01*
X200799955Y-72984401D01*
X200874286Y-73164393D01*
X200951521Y-73349008D01*
X201029231Y-73532468D01*
X201104988Y-73708996D01*
X201176362Y-73872814D01*
X201240925Y-74018147D01*
X201296247Y-74139217D01*
X201339899Y-74230247D01*
X201369453Y-74285460D01*
X201381355Y-74299961D01*
X201417722Y-74288669D01*
X201485769Y-74258385D01*
X201573763Y-74214520D01*
X201622149Y-74188875D01*
X201827636Y-74077770D01*
X202072431Y-74243346D01*
X202197393Y-74328170D01*
X202334204Y-74421516D01*
X202462411Y-74509408D01*
X202526628Y-74553667D01*
X202616948Y-74614318D01*
X202693428Y-74662381D01*
X202746092Y-74691770D01*
X202763197Y-74697982D01*
X202788094Y-74681223D01*
X202843194Y-74634436D01*
X202923156Y-74562480D01*
X203022639Y-74470212D01*
X203136299Y-74362490D01*
X203208184Y-74293326D01*
X203333948Y-74169757D01*
X203442636Y-74059234D01*
X203529854Y-73966485D01*
X203591210Y-73896237D01*
X203622308Y-73853220D01*
X203625291Y-73844490D01*
X203611446Y-73811284D01*
X203573187Y-73744142D01*
X203514758Y-73649863D01*
X203440402Y-73535245D01*
X203354364Y-73407083D01*
X203329897Y-73371353D01*
X203240745Y-73241489D01*
X203160761Y-73124569D01*
X203094419Y-73027162D01*
X203046188Y-72955839D01*
X203020542Y-72917170D01*
X203018064Y-72913172D01*
X203021770Y-72882355D01*
X203041438Y-72814599D01*
X203073639Y-72718839D01*
X203114944Y-72604009D01*
X203161924Y-72479044D01*
X203211150Y-72352879D01*
X203259191Y-72234448D01*
X203302618Y-72132685D01*
X203338003Y-72056526D01*
X203361915Y-72014904D01*
X203363615Y-72012908D01*
X203378237Y-72001013D01*
X203402934Y-71989250D01*
X203443127Y-71976401D01*
X203504236Y-71961249D01*
X203591682Y-71942576D01*
X203710887Y-71919165D01*
X203867272Y-71889797D01*
X204066256Y-71853255D01*
X204109339Y-71845398D01*
X204237029Y-71820727D01*
X204348346Y-71796593D01*
X204433454Y-71775324D01*
X204482516Y-71759248D01*
X204489094Y-71755500D01*
X204499935Y-71722273D01*
X204508746Y-71648021D01*
X204515523Y-71541376D01*
X204520259Y-71410967D01*
X204522949Y-71265427D01*
X204523586Y-71113386D01*
X204522165Y-70963476D01*
X204518679Y-70824328D01*
X204513123Y-70704572D01*
X204505491Y-70612841D01*
X204495777Y-70557766D01*
X204489921Y-70546493D01*
X204457319Y-70535123D01*
X204383081Y-70516624D01*
X204274603Y-70492602D01*
X204139282Y-70464662D01*
X203984514Y-70434408D01*
X203900192Y-70418551D01*
X203740203Y-70388644D01*
X203597532Y-70361550D01*
X203479151Y-70338631D01*
X203392034Y-70321243D01*
X203343154Y-70310747D01*
X203335109Y-70308420D01*
X203321512Y-70282186D01*
X203292770Y-70218995D01*
X203252714Y-70127877D01*
X203205175Y-70017857D01*
X203153984Y-69897965D01*
X203102973Y-69777227D01*
X203055973Y-69664671D01*
X203016815Y-69569326D01*
X202989330Y-69500217D01*
X202977350Y-69466374D01*
X202977127Y-69464895D01*
X202990708Y-69438197D01*
X203028784Y-69376760D01*
X203087352Y-69286689D01*
X203162411Y-69174090D01*
X203249959Y-69045070D01*
X203300852Y-68970961D01*
X203393590Y-68835077D01*
X203475958Y-68711709D01*
X203543938Y-68607097D01*
X203593511Y-68527483D01*
X203620657Y-68479107D01*
X203624578Y-68468262D01*
X203607724Y-68443020D01*
X203561131Y-68389124D01*
X203490751Y-68312613D01*
X203402534Y-68219523D01*
X203302434Y-68115895D01*
X203196401Y-68007764D01*
X203090388Y-67901170D01*
X202990347Y-67802150D01*
X202902229Y-67716742D01*
X202831986Y-67650985D01*
X202785571Y-67610916D01*
X202770043Y-67601353D01*
X202744760Y-67614800D01*
X202684288Y-67652575D01*
X202594507Y-67710835D01*
X202481296Y-67785734D01*
X202350536Y-67873425D01*
X202251900Y-67940233D01*
X201753542Y-68279112D01*
X201338129Y-68107865D01*
X200922715Y-67936618D01*
X200810133Y-67339427D01*
X200697550Y-66742235D01*
X199454547Y-66742235D01*
X199341964Y-67339427D01*
G04 #@! TD*
M02*
