G04 #@! TF.GenerationSoftware,KiCad,Pcbnew,(5.1.5)-3*
G04 #@! TF.CreationDate,2020-08-23T08:48:16+04:00*
G04 #@! TF.ProjectId,SHT20-breakout-board,53485432-302d-4627-9265-616b6f75742d,rev?*
G04 #@! TF.SameCoordinates,Original*
G04 #@! TF.FileFunction,Paste,Top*
G04 #@! TF.FilePolarity,Positive*
%FSLAX46Y46*%
G04 Gerber Fmt 4.6, Leading zero omitted, Abs format (unit mm)*
G04 Created by KiCad (PCBNEW (5.1.5)-3) date 2020-08-23 08:48:16*
%MOMM*%
%LPD*%
G04 APERTURE LIST*
%ADD10C,0.010000*%
%ADD11C,0.100000*%
G04 APERTURE END LIST*
D10*
G04 #@! TO.C,U1*
G36*
X199388500Y-66435000D02*
G01*
X199388500Y-68460000D01*
X200788500Y-68460000D01*
X200788500Y-66160000D01*
X199663500Y-66160000D01*
X199388500Y-66435000D01*
G37*
X199388500Y-66435000D02*
X199388500Y-68460000D01*
X200788500Y-68460000D01*
X200788500Y-66160000D01*
X199663500Y-66160000D01*
X199388500Y-66435000D01*
G36*
X201288500Y-68110000D02*
G01*
X201788500Y-68110000D01*
X201788500Y-68510000D01*
X201288500Y-68510000D01*
X201288500Y-68110000D01*
G37*
X201288500Y-68110000D02*
X201788500Y-68110000D01*
X201788500Y-68510000D01*
X201288500Y-68510000D01*
X201288500Y-68110000D01*
G36*
X201288500Y-67110000D02*
G01*
X201788500Y-67110000D01*
X201788500Y-67510000D01*
X201288500Y-67510000D01*
X201288500Y-67110000D01*
G37*
X201288500Y-67110000D02*
X201788500Y-67110000D01*
X201788500Y-67510000D01*
X201288500Y-67510000D01*
X201288500Y-67110000D01*
G36*
X201288500Y-66110000D02*
G01*
X201788500Y-66110000D01*
X201788500Y-66510000D01*
X201288500Y-66510000D01*
X201288500Y-66110000D01*
G37*
X201288500Y-66110000D02*
X201788500Y-66110000D01*
X201788500Y-66510000D01*
X201288500Y-66510000D01*
X201288500Y-66110000D01*
G36*
X198388500Y-68110000D02*
G01*
X198888500Y-68110000D01*
X198888500Y-68510000D01*
X198388500Y-68510000D01*
X198388500Y-68110000D01*
G37*
X198388500Y-68110000D02*
X198888500Y-68110000D01*
X198888500Y-68510000D01*
X198388500Y-68510000D01*
X198388500Y-68110000D01*
G36*
X198388500Y-67110000D02*
G01*
X198888500Y-67110000D01*
X198888500Y-67510000D01*
X198388500Y-67510000D01*
X198388500Y-67110000D01*
G37*
X198388500Y-67110000D02*
X198888500Y-67110000D01*
X198888500Y-67510000D01*
X198388500Y-67510000D01*
X198388500Y-67110000D01*
G36*
X198388500Y-66110000D02*
G01*
X198888500Y-66110000D01*
X198888500Y-66510000D01*
X198388500Y-66510000D01*
X198388500Y-66110000D01*
G37*
X198388500Y-66110000D02*
X198888500Y-66110000D01*
X198888500Y-66510000D01*
X198388500Y-66510000D01*
X198388500Y-66110000D01*
G04 #@! TD*
D11*
G04 #@! TO.C,R2*
G36*
X197076142Y-68045174D02*
G01*
X197099803Y-68048684D01*
X197123007Y-68054496D01*
X197145529Y-68062554D01*
X197167153Y-68072782D01*
X197187670Y-68085079D01*
X197206883Y-68099329D01*
X197224607Y-68115393D01*
X197240671Y-68133117D01*
X197254921Y-68152330D01*
X197267218Y-68172847D01*
X197277446Y-68194471D01*
X197285504Y-68216993D01*
X197291316Y-68240197D01*
X197294826Y-68263858D01*
X197296000Y-68287750D01*
X197296000Y-68775250D01*
X197294826Y-68799142D01*
X197291316Y-68822803D01*
X197285504Y-68846007D01*
X197277446Y-68868529D01*
X197267218Y-68890153D01*
X197254921Y-68910670D01*
X197240671Y-68929883D01*
X197224607Y-68947607D01*
X197206883Y-68963671D01*
X197187670Y-68977921D01*
X197167153Y-68990218D01*
X197145529Y-69000446D01*
X197123007Y-69008504D01*
X197099803Y-69014316D01*
X197076142Y-69017826D01*
X197052250Y-69019000D01*
X196139750Y-69019000D01*
X196115858Y-69017826D01*
X196092197Y-69014316D01*
X196068993Y-69008504D01*
X196046471Y-69000446D01*
X196024847Y-68990218D01*
X196004330Y-68977921D01*
X195985117Y-68963671D01*
X195967393Y-68947607D01*
X195951329Y-68929883D01*
X195937079Y-68910670D01*
X195924782Y-68890153D01*
X195914554Y-68868529D01*
X195906496Y-68846007D01*
X195900684Y-68822803D01*
X195897174Y-68799142D01*
X195896000Y-68775250D01*
X195896000Y-68287750D01*
X195897174Y-68263858D01*
X195900684Y-68240197D01*
X195906496Y-68216993D01*
X195914554Y-68194471D01*
X195924782Y-68172847D01*
X195937079Y-68152330D01*
X195951329Y-68133117D01*
X195967393Y-68115393D01*
X195985117Y-68099329D01*
X196004330Y-68085079D01*
X196024847Y-68072782D01*
X196046471Y-68062554D01*
X196068993Y-68054496D01*
X196092197Y-68048684D01*
X196115858Y-68045174D01*
X196139750Y-68044000D01*
X197052250Y-68044000D01*
X197076142Y-68045174D01*
G37*
G36*
X197076142Y-69920174D02*
G01*
X197099803Y-69923684D01*
X197123007Y-69929496D01*
X197145529Y-69937554D01*
X197167153Y-69947782D01*
X197187670Y-69960079D01*
X197206883Y-69974329D01*
X197224607Y-69990393D01*
X197240671Y-70008117D01*
X197254921Y-70027330D01*
X197267218Y-70047847D01*
X197277446Y-70069471D01*
X197285504Y-70091993D01*
X197291316Y-70115197D01*
X197294826Y-70138858D01*
X197296000Y-70162750D01*
X197296000Y-70650250D01*
X197294826Y-70674142D01*
X197291316Y-70697803D01*
X197285504Y-70721007D01*
X197277446Y-70743529D01*
X197267218Y-70765153D01*
X197254921Y-70785670D01*
X197240671Y-70804883D01*
X197224607Y-70822607D01*
X197206883Y-70838671D01*
X197187670Y-70852921D01*
X197167153Y-70865218D01*
X197145529Y-70875446D01*
X197123007Y-70883504D01*
X197099803Y-70889316D01*
X197076142Y-70892826D01*
X197052250Y-70894000D01*
X196139750Y-70894000D01*
X196115858Y-70892826D01*
X196092197Y-70889316D01*
X196068993Y-70883504D01*
X196046471Y-70875446D01*
X196024847Y-70865218D01*
X196004330Y-70852921D01*
X195985117Y-70838671D01*
X195967393Y-70822607D01*
X195951329Y-70804883D01*
X195937079Y-70785670D01*
X195924782Y-70765153D01*
X195914554Y-70743529D01*
X195906496Y-70721007D01*
X195900684Y-70697803D01*
X195897174Y-70674142D01*
X195896000Y-70650250D01*
X195896000Y-70162750D01*
X195897174Y-70138858D01*
X195900684Y-70115197D01*
X195906496Y-70091993D01*
X195914554Y-70069471D01*
X195924782Y-70047847D01*
X195937079Y-70027330D01*
X195951329Y-70008117D01*
X195967393Y-69990393D01*
X195985117Y-69974329D01*
X196004330Y-69960079D01*
X196024847Y-69947782D01*
X196046471Y-69937554D01*
X196068993Y-69929496D01*
X196092197Y-69923684D01*
X196115858Y-69920174D01*
X196139750Y-69919000D01*
X197052250Y-69919000D01*
X197076142Y-69920174D01*
G37*
G04 #@! TD*
G04 #@! TO.C,C1*
G36*
X200976142Y-69405174D02*
G01*
X200999803Y-69408684D01*
X201023007Y-69414496D01*
X201045529Y-69422554D01*
X201067153Y-69432782D01*
X201087670Y-69445079D01*
X201106883Y-69459329D01*
X201124607Y-69475393D01*
X201140671Y-69493117D01*
X201154921Y-69512330D01*
X201167218Y-69532847D01*
X201177446Y-69554471D01*
X201185504Y-69576993D01*
X201191316Y-69600197D01*
X201194826Y-69623858D01*
X201196000Y-69647750D01*
X201196000Y-70560250D01*
X201194826Y-70584142D01*
X201191316Y-70607803D01*
X201185504Y-70631007D01*
X201177446Y-70653529D01*
X201167218Y-70675153D01*
X201154921Y-70695670D01*
X201140671Y-70714883D01*
X201124607Y-70732607D01*
X201106883Y-70748671D01*
X201087670Y-70762921D01*
X201067153Y-70775218D01*
X201045529Y-70785446D01*
X201023007Y-70793504D01*
X200999803Y-70799316D01*
X200976142Y-70802826D01*
X200952250Y-70804000D01*
X200464750Y-70804000D01*
X200440858Y-70802826D01*
X200417197Y-70799316D01*
X200393993Y-70793504D01*
X200371471Y-70785446D01*
X200349847Y-70775218D01*
X200329330Y-70762921D01*
X200310117Y-70748671D01*
X200292393Y-70732607D01*
X200276329Y-70714883D01*
X200262079Y-70695670D01*
X200249782Y-70675153D01*
X200239554Y-70653529D01*
X200231496Y-70631007D01*
X200225684Y-70607803D01*
X200222174Y-70584142D01*
X200221000Y-70560250D01*
X200221000Y-69647750D01*
X200222174Y-69623858D01*
X200225684Y-69600197D01*
X200231496Y-69576993D01*
X200239554Y-69554471D01*
X200249782Y-69532847D01*
X200262079Y-69512330D01*
X200276329Y-69493117D01*
X200292393Y-69475393D01*
X200310117Y-69459329D01*
X200329330Y-69445079D01*
X200349847Y-69432782D01*
X200371471Y-69422554D01*
X200393993Y-69414496D01*
X200417197Y-69408684D01*
X200440858Y-69405174D01*
X200464750Y-69404000D01*
X200952250Y-69404000D01*
X200976142Y-69405174D01*
G37*
G36*
X199101142Y-69405174D02*
G01*
X199124803Y-69408684D01*
X199148007Y-69414496D01*
X199170529Y-69422554D01*
X199192153Y-69432782D01*
X199212670Y-69445079D01*
X199231883Y-69459329D01*
X199249607Y-69475393D01*
X199265671Y-69493117D01*
X199279921Y-69512330D01*
X199292218Y-69532847D01*
X199302446Y-69554471D01*
X199310504Y-69576993D01*
X199316316Y-69600197D01*
X199319826Y-69623858D01*
X199321000Y-69647750D01*
X199321000Y-70560250D01*
X199319826Y-70584142D01*
X199316316Y-70607803D01*
X199310504Y-70631007D01*
X199302446Y-70653529D01*
X199292218Y-70675153D01*
X199279921Y-70695670D01*
X199265671Y-70714883D01*
X199249607Y-70732607D01*
X199231883Y-70748671D01*
X199212670Y-70762921D01*
X199192153Y-70775218D01*
X199170529Y-70785446D01*
X199148007Y-70793504D01*
X199124803Y-70799316D01*
X199101142Y-70802826D01*
X199077250Y-70804000D01*
X198589750Y-70804000D01*
X198565858Y-70802826D01*
X198542197Y-70799316D01*
X198518993Y-70793504D01*
X198496471Y-70785446D01*
X198474847Y-70775218D01*
X198454330Y-70762921D01*
X198435117Y-70748671D01*
X198417393Y-70732607D01*
X198401329Y-70714883D01*
X198387079Y-70695670D01*
X198374782Y-70675153D01*
X198364554Y-70653529D01*
X198356496Y-70631007D01*
X198350684Y-70607803D01*
X198347174Y-70584142D01*
X198346000Y-70560250D01*
X198346000Y-69647750D01*
X198347174Y-69623858D01*
X198350684Y-69600197D01*
X198356496Y-69576993D01*
X198364554Y-69554471D01*
X198374782Y-69532847D01*
X198387079Y-69512330D01*
X198401329Y-69493117D01*
X198417393Y-69475393D01*
X198435117Y-69459329D01*
X198454330Y-69445079D01*
X198474847Y-69432782D01*
X198496471Y-69422554D01*
X198518993Y-69414496D01*
X198542197Y-69408684D01*
X198565858Y-69405174D01*
X198589750Y-69404000D01*
X199077250Y-69404000D01*
X199101142Y-69405174D01*
G37*
G04 #@! TD*
G04 #@! TO.C,R1*
G36*
X203934142Y-69920174D02*
G01*
X203957803Y-69923684D01*
X203981007Y-69929496D01*
X204003529Y-69937554D01*
X204025153Y-69947782D01*
X204045670Y-69960079D01*
X204064883Y-69974329D01*
X204082607Y-69990393D01*
X204098671Y-70008117D01*
X204112921Y-70027330D01*
X204125218Y-70047847D01*
X204135446Y-70069471D01*
X204143504Y-70091993D01*
X204149316Y-70115197D01*
X204152826Y-70138858D01*
X204154000Y-70162750D01*
X204154000Y-70650250D01*
X204152826Y-70674142D01*
X204149316Y-70697803D01*
X204143504Y-70721007D01*
X204135446Y-70743529D01*
X204125218Y-70765153D01*
X204112921Y-70785670D01*
X204098671Y-70804883D01*
X204082607Y-70822607D01*
X204064883Y-70838671D01*
X204045670Y-70852921D01*
X204025153Y-70865218D01*
X204003529Y-70875446D01*
X203981007Y-70883504D01*
X203957803Y-70889316D01*
X203934142Y-70892826D01*
X203910250Y-70894000D01*
X202997750Y-70894000D01*
X202973858Y-70892826D01*
X202950197Y-70889316D01*
X202926993Y-70883504D01*
X202904471Y-70875446D01*
X202882847Y-70865218D01*
X202862330Y-70852921D01*
X202843117Y-70838671D01*
X202825393Y-70822607D01*
X202809329Y-70804883D01*
X202795079Y-70785670D01*
X202782782Y-70765153D01*
X202772554Y-70743529D01*
X202764496Y-70721007D01*
X202758684Y-70697803D01*
X202755174Y-70674142D01*
X202754000Y-70650250D01*
X202754000Y-70162750D01*
X202755174Y-70138858D01*
X202758684Y-70115197D01*
X202764496Y-70091993D01*
X202772554Y-70069471D01*
X202782782Y-70047847D01*
X202795079Y-70027330D01*
X202809329Y-70008117D01*
X202825393Y-69990393D01*
X202843117Y-69974329D01*
X202862330Y-69960079D01*
X202882847Y-69947782D01*
X202904471Y-69937554D01*
X202926993Y-69929496D01*
X202950197Y-69923684D01*
X202973858Y-69920174D01*
X202997750Y-69919000D01*
X203910250Y-69919000D01*
X203934142Y-69920174D01*
G37*
G36*
X203934142Y-68045174D02*
G01*
X203957803Y-68048684D01*
X203981007Y-68054496D01*
X204003529Y-68062554D01*
X204025153Y-68072782D01*
X204045670Y-68085079D01*
X204064883Y-68099329D01*
X204082607Y-68115393D01*
X204098671Y-68133117D01*
X204112921Y-68152330D01*
X204125218Y-68172847D01*
X204135446Y-68194471D01*
X204143504Y-68216993D01*
X204149316Y-68240197D01*
X204152826Y-68263858D01*
X204154000Y-68287750D01*
X204154000Y-68775250D01*
X204152826Y-68799142D01*
X204149316Y-68822803D01*
X204143504Y-68846007D01*
X204135446Y-68868529D01*
X204125218Y-68890153D01*
X204112921Y-68910670D01*
X204098671Y-68929883D01*
X204082607Y-68947607D01*
X204064883Y-68963671D01*
X204045670Y-68977921D01*
X204025153Y-68990218D01*
X204003529Y-69000446D01*
X203981007Y-69008504D01*
X203957803Y-69014316D01*
X203934142Y-69017826D01*
X203910250Y-69019000D01*
X202997750Y-69019000D01*
X202973858Y-69017826D01*
X202950197Y-69014316D01*
X202926993Y-69008504D01*
X202904471Y-69000446D01*
X202882847Y-68990218D01*
X202862330Y-68977921D01*
X202843117Y-68963671D01*
X202825393Y-68947607D01*
X202809329Y-68929883D01*
X202795079Y-68910670D01*
X202782782Y-68890153D01*
X202772554Y-68868529D01*
X202764496Y-68846007D01*
X202758684Y-68822803D01*
X202755174Y-68799142D01*
X202754000Y-68775250D01*
X202754000Y-68287750D01*
X202755174Y-68263858D01*
X202758684Y-68240197D01*
X202764496Y-68216993D01*
X202772554Y-68194471D01*
X202782782Y-68172847D01*
X202795079Y-68152330D01*
X202809329Y-68133117D01*
X202825393Y-68115393D01*
X202843117Y-68099329D01*
X202862330Y-68085079D01*
X202882847Y-68072782D01*
X202904471Y-68062554D01*
X202926993Y-68054496D01*
X202950197Y-68048684D01*
X202973858Y-68045174D01*
X202997750Y-68044000D01*
X203910250Y-68044000D01*
X203934142Y-68045174D01*
G37*
G04 #@! TD*
M02*
